# xmcd
#
# Track frame offsets: 
#        150
#        14325
#        25558
#        41053
#        58871
#        70239
#        82346
#        96900
#        107628
#        120120
#        134903
#
# Disc length: 1950 seconds
#
# Revision: 0
# Processed by: cddbd v1.5.1PL0 Copyright (c) Steve Scherf et al.
# Submitted via: ExactAudioCopy v0.95a5
#
DISCID=96079c0b
DTITLE=Tommy Overstreet - Dream Maker
DYEAR=1982
DGENRE=Country
TTITLE0=Dream Maker
TTITLE1=Lonestar Lonesome
TTITLE2=Jesus Saves
TTITLE3=It's Down To Me And Him (And Up To You)
TTITLE4=I'll Be Around
TTITLE5=More Than You Can Stand
TTITLE6=Heart Of Dixie
TTITLE7=I'll Never Get Over You
TTITLE8=When Did You Start To Stop Loving Me
TTITLE9=Too LateTo Go Home
TTITLE10=Rough Rider
EXTD=(c)1982 Intercord GmbH\nLP Katalog: INT 145.062
EXTT0=
EXTT1=
EXTT2=
EXTT3=
EXTT4=
EXTT5=
EXTT6=
EXTT7=
EXTT8=
EXTT9=
EXTT10=
PLAYORDER=
